<?xml version="1.0" ?><!DOCTYPE svg  PUBLIC '-//W3C//DTD SVG 1.1//EN'  'http://www.w3.org/Graphics/SVG/1.1/DTD/svg11.dtd'><svg style="enable-background:new 0 0 499.979 390.793;" version="1.1" viewBox="0 0 499.979 390.793" xml:space="preserve" xmlns="http://www.w3.org/2000/svg" xmlns:xlink="http://www.w3.org/1999/xlink"><g id="cloud-key-lock"><g id="cloud-key-lock_1_"><path d="M404.174,119.452c-4.318,0-8.523,0.387-12.695,0.945C387.843,53.29,332.284,0,264.261,0    c-55.505,0-97.789,40.418-115.262,89.954c-9.328-2.446-24.018-8.668-34.095-8.668C51.445,81.286,0,132.731,0,196.191    c0,63.458,51.445,114.903,114.904,114.903c6.752,0,15.146,0,24.692,0v9.847c-0.054,40.569,27.021,67.964,69.847,69.852h81.264    c19.432,0,36.176-6.543,48.425-18.9c19.453-19.587,21.336-46.597,21.244-57.109v-3.69c19.715,0,35.274,0,43.797,0    c52.909,0,95.805-42.885,95.805-95.832C499.979,162.359,457.083,119.452,404.174,119.452z M340.887,314.783    c0.203,22.699-10.599,56.615-50.345,56.509h-81.099c-32.405-1.416-50.399-20.445-50.362-50.33v-9.868v-46.446    c-0.16-30.163,17.94-37.136,17.94-37.136v-40.589c0-8.538,13.393-59.533,74.073-59.125c59.656,0.365,73.402,50.587,73.402,59.125    v40.589c0,0,16.08,8.132,16.39,37.136v46.446V314.783z" style="fill:#484C4D;"/><path d="M249.324,260.315c-14.346,0-25.99,11.649-25.99,25.979c0,10.984,6.828,20.381,16.461,24.156v0.644    v24.907c0,5.235,4.253,9.483,9.487,9.483c5.24,0,9.505-4.248,9.505-9.483v-24.907v-0.622c9.648-3.776,16.491-13.151,16.491-24.178    C275.277,271.963,263.655,260.315,249.324,260.315z" style="fill:#484C4D;"/><path d="M251.861,152.683c-24.29-0.428-50.898,14.696-50.593,41.685v32.588    c0,0.192,0.027,0.365,0.027,0.557h98.942c0-0.192,0.011-0.365,0.011-0.557v-32.588    C300.082,170.854,276.168,153.112,251.861,152.683z" style="fill:#484C4D;"/></g></g><g id="Layer_1"/></svg>